<?xml version="1.0" encoding="UTF-8" standalone="no"?>
<svg
   data-v-fde0c5aa=""
   viewBox="0 0 300 300"
   class="iconAbove"
   version="1.1"
   id="svg23"
   sodipodi:docname="default.svg"
   inkscape:version="1.2.1 (9c6d41e, 2022-07-14)"
   xmlns:inkscape="http://www.inkscape.org/namespaces/inkscape"
   xmlns:sodipodi="http://sodipodi.sourceforge.net/DTD/sodipodi-0.dtd"
   xmlns:xlink="http://www.w3.org/1999/xlink"
   xmlns="http://www.w3.org/2000/svg"
   xmlns:svg="http://www.w3.org/2000/svg">
  <sodipodi:namedview
     id="namedview25"
     pagecolor="#ffffff"
     bordercolor="#cccccc"
     borderopacity="1"
     inkscape:showpageshadow="0"
     inkscape:pageopacity="1"
     inkscape:pagecheckerboard="0"
     inkscape:deskcolor="#d1d1d1"
     showgrid="false"
     inkscape:zoom="0.78666667"
     inkscape:cx="150.63559"
     inkscape:cy="150"
     inkscape:window-width="1313"
     inkscape:window-height="458"
     inkscape:window-x="0"
     inkscape:window-y="25"
     inkscape:window-maximized="0"
     inkscape:current-layer="svg23" />
  <!---->
  <defs
     data-v-fde0c5aa=""
     id="defs2">
    <!---->
    <linearGradient
       inkscape:collect="always"
       xlink:href="#c8423b40-aeaf-4426-86d1-569345596fd7"
       id="linearGradient185"
       gradientTransform="scale(1.6340142,0.61198977)"
       x1="1.2099038"
       y1="52.311332"
       x2="59.990298"
       y2="52.311332"
       gradientUnits="userSpaceOnUse" />
    <linearGradient
       inkscape:collect="always"
       xlink:href="#c8423b40-aeaf-4426-86d1-569345596fd7"
       id="linearGradient187"
       gradientTransform="scale(0.69033506,1.4485719)"
       x1="95.615888"
       y1="39.76399"
       x2="95.792614"
       y2="39.76399"
       gradientUnits="userSpaceOnUse" />
    <linearGradient
       inkscape:collect="always"
       xlink:href="#c8423b40-aeaf-4426-86d1-569345596fd7"
       id="linearGradient189"
       gradientTransform="scale(1.6340142,0.61198977)"
       x1="1.2099038"
       y1="52.311332"
       x2="59.990298"
       y2="52.311332"
       gradientUnits="userSpaceOnUse" />
  </defs>
  <rect
     data-v-fde0c5aa=""
     fill="#D2EAF5"
     x="0"
     y="0"
     width="300px"
     height="300px"
     class="logo-background-square"
     id="rect4" />
  <defs
     data-v-fde0c5aa=""
     id="defs6">
    <!---->
  </defs>
  <defs
     data-v-fde0c5aa=""
     id="defs16">
    <linearGradient
       data-v-fde0c5aa=""
       gradientTransform="rotate(25)"
       id="c8423b40-aeaf-4426-86d1-569345596fd7"
       x1="0%"
       y1="0%"
       x2="100%"
       y2="0%">
      <stop
         data-v-fde0c5aa=""
         offset="0%"
         stop-color="#000A68"
         stop-opacity="1"
         id="stop11" />
      <stop
         data-v-fde0c5aa=""
         offset="100%"
         stop-color="#00C4EE"
         stop-opacity="1"
         id="stop13" />
    </linearGradient>
  </defs>
  <g
     data-v-fde0c5aa=""
     id="d578632c-506e-42e4-8932-63c990793a28"
     stroke="none"
     fill="url(#c8423b40-aeaf-4426-86d1-569345596fd7)"
     transform="matrix(2.5071564,0,0,2.5071564,24.639681,31.229039)"
     style="fill:url(#linearGradient189)">
    <path
       d="m 46.938,58.73 1.768,-1.975 -15.955,-11.912 1.59,-3.508 3.531,-3.88 -0.711,-5.271 -3.499,-0.094 -5.148,4.343 -4.394,1.009 -5.924,4.089 -13.323,-2.136 -2.896,16.896 2.84,4.511 9.361,1.504 1.06,-2.427 12.76,5.802 10.401,2.306 0.919,-1.89 1.75,0.273 2.362,-1.337 -0.014,-1.253 2.577,0.584 2.25,-1.505 0.746,-2.601 z M 8.192,55.203 C 8.091,55.786 7.583,56.224 7.005,56.224 A 1.127,1.127 0 0 1 6.082,55.751 1.18,1.18 0 0 1 5.879,54.851 C 5.98,54.272 6.487,53.83 7.063,53.832 a 1.107,1.107 0 0 1 0.924,0.475 c 0.187,0.255 0.257,0.577 0.205,0.896 z m 38.511,6.531 -1.067,0.719 -3.703,-0.843 -7.914,-4.002 -0.201,0.399 7.787,3.937 0.021,2.05 -0.9,0.509 -1.858,-0.288 h -0.002 l -6.68,-3.006 -0.181,0.408 6.156,2.774 -0.752,1.542 -8.842,-1.959 -12.529,-5.694 -0.009,-0.221 0.139,-0.312 2.458,-14.345 6.229,-4.292 4.479,-1.03 4.958,-4.187 1.299,0.038 0.397,2.938 -3.16,3.47 -2.114,4.667 -2.864,-2.027 -0.258,0.366 3.139,2.222 15.337,11.453 -1.537,1.717 -9.207,-5.154 -0.218,0.388 9.839,5.508 v 0.002 l 1.981,1.474 z m 48.63,-22.067 -13.345,1.976 -5.877,-4.161 -4.38,-1.061 -5.094,-4.407 -3.499,0.049 -0.776,5.266 3.478,3.92 1.55,3.527 -16.098,11.717 1.745,1.996 -2.072,1.501 0.719,2.612 2.228,1.532 2.59,-0.553 -0.032,1.252 2.346,1.363 1.748,-0.248 0.898,1.901 10.429,-2.179 12.833,-5.644 1.025,2.438 9.382,-1.388 2.894,-4.479 z m -11.393,18.75 -12.599,5.542 -8.867,1.85 -0.733,-1.552 6.033,-2.629 1.099,1.414 0.353,-0.276 -1.311,-1.684 -6.874,2.994 h -0.003 l -1.859,0.265 -0.896,-0.521 0.047,-2.053 7.436,-3.646 c 0.281,0.501 0.8,1.256 0.829,1.294 L 66.963,59.16 C 66.956,59.149 66.397,58.34 66.134,57.862 L 66.13,57.857 a 1.115,1.115 0 0 1 -0.065,-0.129 c -0.023,-0.037 -0.039,-0.08 -0.057,-0.127 0,0 -0.005,0 -0.005,-0.004 -0.218,-0.499 -0.526,-1.458 -0.53,-1.471 l -0.425,0.139 c 0.014,0.041 0.299,0.925 0.522,1.459 l -7.564,3.707 -3.716,0.795 -1.055,-0.726 -0.216,-0.787 2.003,-1.452 0.002,-0.003 9.582,-5.234 -0.808,-2.423 -0.423,0.139 0.69,2.07 -8.625,4.712 -1.516,-1.732 15.28,-11.119 c 0.549,0.929 1.935,3.139 3.499,4.759 2.023,2.096 4.641,3.54 4.665,3.554 l 0.214,-0.39 c -0.025,-0.017 -2.584,-1.43 -4.555,-3.474 -1.56,-1.608 -3.422,-4.743 -3.422,-4.743 l -2.244,-5.102 -3.11,-3.509 0.431,-2.937 1.298,-0.018 4.908,4.246 4.468,1.083 6.175,4.372 2.27,14.264 0.015,0.107 0.132,0.316 z m 9.989,-2.408 c -0.184,0.246 -0.45,0.405 -0.753,0.449 a 1,1 0 0 1 -0.168,0.015 c -0.582,-10e-4 -1.091,-0.448 -1.187,-1.037 a 1.167,1.167 0 0 1 0.217,-0.895 1.108,1.108 0 0 1 0.913,-0.464 1.226,1.226 0 0 1 1.187,1.037 c 0.051,0.322 -0.024,0.637 -0.209,0.895 z"
       id="path18"
       style="fill:url(#linearGradient185)" />
    <path
       d="m 66.129,57.857 a 1.115,1.115 0 0 1 -0.065,-0.129 c -0.023,-0.037 -0.039,-0.08 -0.057,-0.127 z"
       id="path20"
       style="fill:url(#linearGradient187)" />
  </g>
  <!---->
</svg>
